<svg id="svg" xmlns="http://www.w3.org/2000/svg" xmlns:xlink="http://www.w3.org/1999/xlink" width="400" height="400" viewBox="0, 0, 400,400"><g id="svgg"><path id="path0" d="M126.600 129.864 C 115.224 132.296,108.000 140.753,108.000 151.640 C 108.000 160.373,111.315 165.600,120.970 172.088 C 131.130 178.915,147.200 193.274,147.200 195.525 C 147.200 198.227,132.558 211.792,121.869 218.993 C 110.316 226.775,107.829 230.702,108.074 240.773 C 108.322 250.921,113.583 257.677,123.846 261.028 C 132.362 263.807,139.845 261.210,153.489 250.739 C 156.300 248.581,159.590 246.059,160.800 245.134 C 164.257 242.492,180.323 226.227,183.850 221.800 C 195.863 206.718,197.300 204.073,197.527 196.629 C 197.846 186.146,191.721 176.442,173.079 157.892 C 151.433 136.353,136.988 127.643,126.600 129.864 M208.400 231.876 C 195.189 236.561,193.625 254.532,205.895 260.651 L 208.200 261.800 244.400 261.800 L 280.600 261.800 282.600 260.743 C 292.171 255.684,294.179 243.269,286.613 235.933 C 285.521 234.874,283.538 233.465,282.207 232.803 L 279.787 231.600 244.393 231.632 C 224.927 231.649,208.730 231.759,208.400 231.876 " stroke="none" fill="#fafafa" fill-rule="evenodd"></path><path id="path1" d="M191.800 18.479 C 190.040 18.675,188.047 19.007,187.372 19.217 C 186.696 19.428,185.582 19.600,184.895 19.600 C 184.209 19.600,183.536 19.780,183.400 20.000 C 183.264 20.220,182.533 20.400,181.776 20.400 C 181.019 20.400,180.400 20.580,180.400 20.800 C 180.400 21.020,179.860 21.200,179.200 21.200 C 178.540 21.200,178.000 21.380,178.000 21.600 C 178.000 21.820,177.460 22.000,176.800 22.000 C 176.140 22.000,175.600 22.180,175.600 22.400 C 175.600 22.620,175.240 22.800,174.800 22.800 C 174.360 22.800,174.000 22.980,174.000 23.200 C 174.000 23.420,173.640 23.600,173.200 23.600 C 172.760 23.600,172.400 23.780,172.400 24.000 C 172.400 24.220,172.040 24.400,171.600 24.400 C 171.160 24.400,170.800 24.580,170.800 24.800 C 170.800 25.020,170.440 25.200,170.000 25.200 C 169.560 25.200,169.200 25.380,169.200 25.600 C 169.200 25.820,168.880 26.000,168.488 26.000 C 168.097 26.000,167.517 26.360,167.200 26.800 C 166.883 27.240,166.303 27.600,165.912 27.600 C 165.520 27.600,165.200 27.780,165.200 28.000 C 165.200 28.220,164.840 28.400,164.400 28.400 C 163.960 28.400,163.600 28.580,163.600 28.800 C 163.600 29.020,163.280 29.200,162.888 29.200 C 162.497 29.200,161.917 29.560,161.600 30.000 C 161.283 30.440,160.703 30.800,160.312 30.800 C 159.920 30.800,159.600 30.980,159.600 31.200 C 159.600 31.420,159.240 31.600,158.800 31.600 C 158.360 31.600,158.000 31.780,158.000 32.000 C 158.000 32.220,157.680 32.400,157.288 32.400 C 156.897 32.400,156.317 32.760,156.000 33.200 C 155.683 33.640,155.103 34.000,154.712 34.000 C 154.320 34.000,154.000 34.180,154.000 34.400 C 154.000 34.620,153.680 34.800,153.288 34.800 C 152.897 34.800,152.317 35.160,152.000 35.600 C 151.683 36.040,151.103 36.400,150.712 36.400 C 150.320 36.400,150.000 36.580,150.000 36.800 C 150.000 37.020,149.640 37.200,149.200 37.200 C 148.760 37.200,148.400 37.380,148.400 37.600 C 148.400 37.820,148.080 38.000,147.688 38.000 C 147.297 38.000,146.717 38.360,146.400 38.800 C 146.083 39.240,145.503 39.600,145.112 39.600 C 144.720 39.600,144.400 39.780,144.400 40.000 C 144.400 40.220,144.040 40.400,143.600 40.400 C 143.160 40.400,142.800 40.580,142.800 40.800 C 142.800 41.020,142.480 41.200,142.088 41.200 C 141.697 41.200,141.117 41.560,140.800 42.000 C 140.483 42.440,139.903 42.800,139.512 42.800 C 139.120 42.800,138.800 42.980,138.800 43.200 C 138.800 43.420,138.522 43.600,138.183 43.600 C 137.844 43.600,137.180 43.960,136.708 44.400 C 136.236 44.840,135.613 45.200,135.325 45.200 C 135.036 45.200,134.800 45.380,134.800 45.600 C 134.800 45.820,134.440 46.000,134.000 46.000 C 133.560 46.000,133.200 46.180,133.200 46.400 C 133.200 46.620,132.880 46.800,132.488 46.800 C 132.097 46.800,131.517 47.160,131.200 47.600 C 130.883 48.040,130.303 48.400,129.912 48.400 C 129.520 48.400,129.200 48.580,129.200 48.800 C 129.200 49.020,128.840 49.200,128.400 49.200 C 127.960 49.200,127.600 49.380,127.600 49.600 C 127.600 49.820,127.280 50.000,126.888 50.000 C 126.497 50.000,125.917 50.360,125.600 50.800 C 125.283 51.240,124.703 51.600,124.312 51.600 C 123.920 51.600,123.600 51.780,123.600 52.000 C 123.600 52.220,123.240 52.400,122.800 52.400 C 122.360 52.400,122.000 52.580,122.000 52.800 C 122.000 53.020,121.680 53.200,121.288 53.200 C 120.897 53.200,120.317 53.560,120.000 54.000 C 119.683 54.440,119.103 54.800,118.712 54.800 C 118.320 54.800,118.000 54.980,118.000 55.200 C 118.000 55.420,117.680 55.600,117.288 55.600 C 116.897 55.600,116.317 55.960,116.000 56.400 C 115.683 56.840,115.103 57.200,114.712 57.200 C 114.320 57.200,114.000 57.380,114.000 57.600 C 114.000 57.820,113.640 58.000,113.200 58.000 C 112.760 58.000,112.400 58.180,112.400 58.400 C 112.400 58.620,112.080 58.800,111.688 58.800 C 111.297 58.800,110.717 59.160,110.400 59.600 C 110.083 60.040,109.503 60.400,109.112 60.400 C 108.720 60.400,108.400 60.580,108.400 60.800 C 108.400 61.020,108.040 61.200,107.600 61.200 C 107.160 61.200,106.800 61.380,106.800 61.600 C 106.800 61.820,106.480 62.000,106.088 62.000 C 105.697 62.000,105.117 62.360,104.800 62.800 C 104.483 63.240,103.903 63.600,103.512 63.600 C 103.120 63.600,102.800 63.780,102.800 64.000 C 102.800 64.220,102.522 64.400,102.183 64.400 C 101.844 64.400,101.180 64.760,100.708 65.200 C 100.236 65.640,99.613 66.000,99.325 66.000 C 99.036 66.000,98.800 66.180,98.800 66.400 C 98.800 66.620,98.440 66.800,98.000 66.800 C 97.560 66.800,97.200 66.980,97.200 67.200 C 97.200 67.420,96.880 67.600,96.488 67.600 C 96.097 67.600,95.517 67.960,95.200 68.400 C 94.883 68.840,94.303 69.200,93.912 69.200 C 93.520 69.200,93.200 69.380,93.200 69.600 C 93.200 69.820,92.840 70.000,92.400 70.000 C 91.960 70.000,91.600 70.180,91.600 70.400 C 91.600 70.620,91.280 70.800,90.888 70.800 C 90.497 70.800,89.917 71.160,89.600 71.600 C 89.283 72.040,88.703 72.400,88.312 72.400 C 87.920 72.400,87.600 72.580,87.600 72.800 C 87.600 73.020,87.240 73.200,86.800 73.200 C 86.360 73.200,86.000 73.380,86.000 73.600 C 86.000 73.820,85.680 74.000,85.288 74.000 C 84.897 74.000,84.317 74.360,84.000 74.800 C 83.683 75.240,83.103 75.600,82.712 75.600 C 82.320 75.600,82.000 75.780,82.000 76.000 C 82.000 76.220,81.680 76.400,81.288 76.400 C 80.897 76.400,80.317 76.760,80.000 77.200 C 79.683 77.640,79.103 78.000,78.712 78.000 C 78.320 78.000,78.000 78.180,78.000 78.400 C 78.000 78.620,77.640 78.800,77.200 78.800 C 76.760 78.800,76.400 78.980,76.400 79.200 C 76.400 79.420,76.080 79.600,75.688 79.600 C 75.297 79.600,74.717 79.960,74.400 80.400 C 74.083 80.840,73.503 81.200,73.112 81.200 C 72.720 81.200,72.400 81.380,72.400 81.600 C 72.400 81.820,72.040 82.000,71.600 82.000 C 71.160 82.000,70.800 82.180,70.800 82.400 C 70.800 82.620,70.480 82.800,70.088 82.800 C 69.697 82.800,69.117 83.160,68.800 83.600 C 68.483 84.040,67.903 84.400,67.512 84.400 C 67.120 84.400,66.800 84.580,66.800 84.800 C 66.800 85.020,66.522 85.200,66.183 85.200 C 65.844 85.200,65.180 85.560,64.708 86.000 C 64.236 86.440,63.613 86.800,63.325 86.800 C 63.036 86.800,62.800 86.980,62.800 87.200 C 62.800 87.420,62.480 87.600,62.088 87.600 C 61.697 87.600,61.117 87.960,60.800 88.400 C 60.483 88.840,59.975 89.200,59.672 89.200 C 59.369 89.200,58.617 89.740,58.000 90.400 C 57.383 91.060,56.678 91.600,56.433 91.600 C 55.856 91.600,50.000 97.449,50.000 98.025 C 50.000 98.266,49.280 99.154,48.400 100.000 C 47.520 100.846,46.800 101.782,46.800 102.080 C 46.800 102.379,46.440 102.883,46.000 103.200 C 45.560 103.517,45.200 104.057,45.200 104.400 C 45.200 104.743,44.840 105.283,44.400 105.600 C 43.960 105.917,43.600 106.497,43.600 106.888 C 43.600 107.280,43.420 107.600,43.200 107.600 C 42.980 107.600,42.800 107.920,42.800 108.312 C 42.800 108.703,42.440 109.283,42.000 109.600 C 41.560 109.917,41.200 110.497,41.200 110.888 C 41.200 111.280,41.020 111.600,40.800 111.600 C 40.580 111.600,40.400 111.960,40.400 112.400 C 40.400 112.840,40.220 113.200,40.000 113.200 C 39.780 113.200,39.600 113.639,39.600 114.176 C 39.600 114.713,39.420 115.264,39.200 115.400 C 38.980 115.536,38.800 115.997,38.800 116.424 C 38.800 116.851,38.620 117.200,38.400 117.200 C 38.180 117.200,38.000 117.560,38.000 118.000 C 38.000 118.440,37.820 118.800,37.600 118.800 C 37.380 118.800,37.200 119.340,37.200 120.000 C 37.200 120.660,37.020 121.200,36.800 121.200 C 36.580 121.200,36.400 121.740,36.400 122.400 C 36.400 123.060,36.220 123.600,36.000 123.600 C 35.780 123.600,35.600 124.219,35.600 124.976 C 35.600 125.733,35.443 126.450,35.250 126.569 C 34.372 127.112,34.254 135.604,34.228 200.200 L 34.200 269.000 35.328 273.328 C 35.949 275.709,37.164 279.419,38.028 281.574 C 38.893 283.729,39.600 285.786,39.600 286.146 C 39.600 286.506,39.780 286.800,40.000 286.800 C 40.220 286.800,40.400 287.160,40.400 287.600 C 40.400 288.040,40.580 288.400,40.800 288.400 C 41.020 288.400,41.200 288.760,41.200 289.200 C 41.200 289.640,41.380 290.000,41.600 290.000 C 41.820 290.000,42.000 290.320,42.000 290.712 C 42.000 291.103,42.360 291.683,42.800 292.000 C 43.240 292.317,43.600 292.897,43.600 293.288 C 43.600 293.680,43.780 294.000,44.000 294.000 C 44.220 294.000,44.400 294.288,44.400 294.640 C 44.400 294.991,44.940 295.783,45.600 296.400 C 46.260 297.017,46.800 297.737,46.800 298.000 C 46.800 298.263,47.340 298.983,48.000 299.600 C 48.660 300.217,49.200 300.921,49.200 301.166 C 49.200 301.746,56.654 309.200,57.234 309.200 C 57.479 309.200,58.183 309.740,58.800 310.400 C 59.417 311.060,60.169 311.600,60.472 311.600 C 60.775 311.600,61.283 311.960,61.600 312.400 C 61.917 312.840,62.497 313.200,62.888 313.200 C 63.280 313.200,63.600 313.380,63.600 313.600 C 63.600 313.820,63.960 314.000,64.400 314.000 C 64.840 314.000,65.200 314.180,65.200 314.400 C 65.200 314.620,65.520 314.800,65.912 314.800 C 66.303 314.800,66.883 315.160,67.200 315.600 C 67.517 316.040,68.097 316.400,68.488 316.400 C 68.880 316.400,69.200 316.580,69.200 316.800 C 69.200 317.020,69.520 317.200,69.912 317.200 C 70.303 317.200,70.883 317.560,71.200 318.000 C 71.517 318.440,72.097 318.800,72.488 318.800 C 72.880 318.800,73.200 318.980,73.200 319.200 C 73.200 319.420,73.560 319.600,74.000 319.600 C 74.440 319.600,74.800 319.780,74.800 320.000 C 74.800 320.220,75.120 320.400,75.512 320.400 C 75.903 320.400,76.483 320.760,76.800 321.200 C 77.117 321.640,77.697 322.000,78.088 322.000 C 78.480 322.000,78.800 322.180,78.800 322.400 C 78.800 322.620,79.160 322.800,79.600 322.800 C 80.040 322.800,80.400 322.980,80.400 323.200 C 80.400 323.420,80.720 323.600,81.112 323.600 C 81.503 323.600,82.083 323.960,82.400 324.400 C 82.717 324.840,83.297 325.200,83.688 325.200 C 84.080 325.200,84.400 325.380,84.400 325.600 C 84.400 325.820,84.760 326.000,85.200 326.000 C 85.640 326.000,86.000 326.180,86.000 326.400 C 86.000 326.620,86.236 326.800,86.525 326.800 C 86.813 326.800,87.436 327.160,87.908 327.600 C 88.380 328.040,89.044 328.400,89.383 328.400 C 89.722 328.400,90.000 328.580,90.000 328.800 C 90.000 329.020,90.320 329.200,90.712 329.200 C 91.103 329.200,91.683 329.560,92.000 330.000 C 92.317 330.440,92.897 330.800,93.288 330.800 C 93.680 330.800,94.000 330.980,94.000 331.200 C 94.000 331.420,94.360 331.600,94.800 331.600 C 95.240 331.600,95.600 331.780,95.600 332.000 C 95.600 332.220,95.920 332.400,96.312 332.400 C 96.703 332.400,97.283 332.760,97.600 333.200 C 97.917 333.640,98.497 334.000,98.888 334.000 C 99.280 334.000,99.600 334.180,99.600 334.400 C 99.600 334.620,99.960 334.800,100.400 334.800 C 100.840 334.800,101.200 334.980,101.200 335.200 C 101.200 335.420,101.520 335.600,101.912 335.600 C 102.303 335.600,102.883 335.960,103.200 336.400 C 103.517 336.840,104.097 337.200,104.488 337.200 C 104.880 337.200,105.200 337.380,105.200 337.600 C 105.200 337.820,105.520 338.000,105.912 338.000 C 106.303 338.000,106.883 338.360,107.200 338.800 C 107.517 339.240,108.097 339.600,108.488 339.600 C 108.880 339.600,109.200 339.780,109.200 340.000 C 109.200 340.220,109.560 340.400,110.000 340.400 C 110.440 340.400,110.800 340.580,110.800 340.800 C 110.800 341.020,111.120 341.200,111.512 341.200 C 111.903 341.200,112.483 341.560,112.800 342.000 C 113.117 342.440,113.697 342.800,114.088 342.800 C 114.480 342.800,114.800 342.980,114.800 343.200 C 114.800 343.420,115.160 343.600,115.600 343.600 C 116.040 343.600,116.400 343.780,116.400 344.000 C 116.400 344.220,116.720 344.400,117.112 344.400 C 117.503 344.400,118.083 344.760,118.400 345.200 C 118.717 345.640,119.297 346.000,119.688 346.000 C 120.080 346.000,120.400 346.180,120.400 346.400 C 120.400 346.620,120.760 346.800,121.200 346.800 C 121.640 346.800,122.000 346.980,122.000 347.200 C 122.000 347.420,122.236 347.600,122.525 347.600 C 122.813 347.600,123.436 347.960,123.908 348.400 C 124.380 348.840,125.044 349.200,125.383 349.200 C 125.722 349.200,126.000 349.380,126.000 349.600 C 126.000 349.820,126.320 350.000,126.712 350.000 C 127.103 350.000,127.683 350.360,128.000 350.800 C 128.317 351.240,128.897 351.600,129.288 351.600 C 129.680 351.600,130.000 351.780,130.000 352.000 C 130.000 352.220,130.360 352.400,130.800 352.400 C 131.240 352.400,131.600 352.580,131.600 352.800 C 131.600 353.020,131.920 353.200,132.312 353.200 C 132.703 353.200,133.283 353.560,133.600 354.000 C 133.917 354.440,134.497 354.800,134.888 354.800 C 135.280 354.800,135.600 354.980,135.600 355.200 C 135.600 355.420,135.960 355.600,136.400 355.600 C 136.840 355.600,137.200 355.780,137.200 356.000 C 137.200 356.220,137.520 356.400,137.912 356.400 C 138.303 356.400,138.883 356.760,139.200 357.200 C 139.517 357.640,140.097 358.000,140.488 358.000 C 140.880 358.000,141.200 358.180,141.200 358.400 C 141.200 358.620,141.520 358.800,141.912 358.800 C 142.303 358.800,142.883 359.160,143.200 359.600 C 143.517 360.040,144.097 360.400,144.488 360.400 C 144.880 360.400,145.200 360.580,145.200 360.800 C 145.200 361.020,145.560 361.200,146.000 361.200 C 146.440 361.200,146.800 361.380,146.800 361.600 C 146.800 361.820,147.120 362.000,147.512 362.000 C 147.903 362.000,148.483 362.360,148.800 362.800 C 149.117 363.240,149.697 363.600,150.088 363.600 C 150.480 363.600,150.800 363.780,150.800 364.000 C 150.800 364.220,151.160 364.400,151.600 364.400 C 152.040 364.400,152.400 364.580,152.400 364.800 C 152.400 365.020,152.720 365.200,153.112 365.200 C 153.503 365.200,154.083 365.560,154.400 366.000 C 154.717 366.440,155.297 366.800,155.688 366.800 C 156.080 366.800,156.400 366.980,156.400 367.200 C 156.400 367.420,156.760 367.600,157.200 367.600 C 157.640 367.600,158.000 367.780,158.000 368.000 C 158.000 368.220,158.320 368.400,158.712 368.400 C 159.103 368.400,159.683 368.760,160.000 369.200 C 160.317 369.640,160.897 370.000,161.288 370.000 C 161.680 370.000,162.000 370.180,162.000 370.400 C 162.000 370.620,162.320 370.800,162.712 370.800 C 163.103 370.800,163.683 371.160,164.000 371.600 C 164.317 372.040,164.897 372.400,165.288 372.400 C 165.680 372.400,166.000 372.580,166.000 372.800 C 166.000 373.020,166.360 373.200,166.800 373.200 C 167.240 373.200,167.600 373.380,167.600 373.600 C 167.600 373.820,167.920 374.000,168.312 374.000 C 168.703 374.000,169.283 374.360,169.600 374.800 C 169.917 375.240,170.497 375.600,170.888 375.600 C 171.280 375.600,171.600 375.780,171.600 376.000 C 171.600 376.220,171.960 376.400,172.400 376.400 C 172.840 376.400,173.200 376.580,173.200 376.800 C 173.200 377.020,173.639 377.200,174.176 377.200 C 174.713 377.200,175.264 377.380,175.400 377.600 C 175.536 377.820,175.997 378.000,176.424 378.000 C 176.851 378.000,177.200 378.180,177.200 378.400 C 177.200 378.620,177.740 378.800,178.400 378.800 C 179.060 378.800,179.600 378.980,179.600 379.200 C 179.600 379.420,180.219 379.600,180.976 379.600 C 181.733 379.600,182.452 379.761,182.574 379.958 C 182.695 380.155,183.471 380.408,184.297 380.521 C 185.124 380.634,187.240 380.968,189.000 381.263 C 194.572 382.198,211.662 381.881,214.200 380.796 C 214.640 380.608,215.630 380.344,216.400 380.208 C 217.170 380.073,218.385 379.861,219.100 379.737 C 219.815 379.614,220.400 379.352,220.400 379.156 C 220.400 378.960,220.940 378.800,221.600 378.800 C 222.260 378.800,222.800 378.620,222.800 378.400 C 222.800 378.180,223.340 378.000,224.000 378.000 C 224.660 378.000,225.200 377.820,225.200 377.600 C 225.200 377.380,225.560 377.200,226.000 377.200 C 226.440 377.200,226.800 377.020,226.800 376.800 C 226.800 376.580,227.160 376.400,227.600 376.400 C 228.040 376.400,228.400 376.220,228.400 376.000 C 228.400 375.780,228.760 375.600,229.200 375.600 C 229.640 375.600,230.000 375.420,230.000 375.200 C 230.000 374.980,230.320 374.800,230.712 374.800 C 231.103 374.800,231.683 374.440,232.000 374.000 C 232.317 373.560,232.897 373.200,233.288 373.200 C 233.680 373.200,234.000 373.020,234.000 372.800 C 234.000 372.580,234.360 372.400,234.800 372.400 C 235.240 372.400,235.600 372.220,235.600 372.000 C 235.600 371.780,235.920 371.600,236.312 371.600 C 236.703 371.600,237.283 371.240,237.600 370.800 C 237.917 370.360,238.497 370.000,238.888 370.000 C 239.280 370.000,239.600 369.820,239.600 369.600 C 239.600 369.380,239.920 369.200,240.312 369.200 C 240.703 369.200,241.283 368.840,241.600 368.400 C 241.917 367.960,242.497 367.600,242.888 367.600 C 243.280 367.600,243.600 367.420,243.600 367.200 C 243.600 366.980,243.960 366.800,244.400 366.800 C 244.840 366.800,245.200 366.620,245.200 366.400 C 245.200 366.180,245.520 366.000,245.912 366.000 C 246.303 366.000,246.883 365.640,247.200 365.200 C 247.517 364.760,248.097 364.400,248.488 364.400 C 248.880 364.400,249.200 364.220,249.200 364.000 C 249.200 363.780,249.560 363.600,250.000 363.600 C 250.440 363.600,250.800 363.420,250.800 363.200 C 250.800 362.980,251.120 362.800,251.512 362.800 C 251.903 362.800,252.483 362.440,252.800 362.000 C 253.117 361.560,253.697 361.200,254.088 361.200 C 254.480 361.200,254.800 361.020,254.800 360.800 C 254.800 360.580,255.120 360.400,255.512 360.400 C 255.903 360.400,256.483 360.040,256.800 359.600 C 257.117 359.160,257.697 358.800,258.088 358.800 C 258.480 358.800,258.800 358.620,258.800 358.400 C 258.800 358.180,259.160 358.000,259.600 358.000 C 260.040 358.000,260.400 357.820,260.400 357.600 C 260.400 357.380,260.720 357.200,261.112 357.200 C 261.503 357.200,262.083 356.840,262.400 356.400 C 262.717 355.960,263.297 355.600,263.688 355.600 C 264.080 355.600,264.400 355.420,264.400 355.200 C 264.400 354.980,264.760 354.800,265.200 354.800 C 265.640 354.800,266.000 354.620,266.000 354.400 C 266.000 354.180,266.320 354.000,266.712 354.000 C 267.103 354.000,267.683 353.640,268.000 353.200 C 268.317 352.760,268.897 352.400,269.288 352.400 C 269.680 352.400,270.000 352.220,270.000 352.000 C 270.000 351.780,270.320 351.600,270.712 351.600 C 271.103 351.600,271.683 351.240,272.000 350.800 C 272.317 350.360,272.897 350.000,273.288 350.000 C 273.680 350.000,274.000 349.820,274.000 349.600 C 274.000 349.380,274.360 349.200,274.800 349.200 C 275.240 349.200,275.600 349.020,275.600 348.800 C 275.600 348.580,275.920 348.400,276.312 348.400 C 276.703 348.400,277.283 348.040,277.600 347.600 C 277.917 347.160,278.497 346.800,278.888 346.800 C 279.280 346.800,279.600 346.620,279.600 346.400 C 279.600 346.180,279.960 346.000,280.400 346.000 C 280.840 346.000,281.200 345.820,281.200 345.600 C 281.200 345.380,281.520 345.200,281.912 345.200 C 282.303 345.200,282.883 344.840,283.200 344.400 C 283.517 343.960,284.097 343.600,284.488 343.600 C 284.880 343.600,285.200 343.420,285.200 343.200 C 285.200 342.980,285.560 342.800,286.000 342.800 C 286.440 342.800,286.800 342.620,286.800 342.400 C 286.800 342.180,287.120 342.000,287.512 342.000 C 287.903 342.000,288.483 341.640,288.800 341.200 C 289.117 340.760,289.697 340.400,290.088 340.400 C 290.480 340.400,290.800 340.220,290.800 340.000 C 290.800 339.780,291.120 339.600,291.512 339.600 C 291.903 339.600,292.483 339.240,292.800 338.800 C 293.117 338.360,293.697 338.000,294.088 338.000 C 294.480 338.000,294.800 337.820,294.800 337.600 C 294.800 337.380,295.160 337.200,295.600 337.200 C 296.040 337.200,296.400 337.020,296.400 336.800 C 296.400 336.580,296.720 336.400,297.112 336.400 C 297.503 336.400,298.083 336.040,298.400 335.600 C 298.717 335.160,299.297 334.800,299.688 334.800 C 300.080 334.800,300.400 334.620,300.400 334.400 C 300.400 334.180,300.760 334.000,301.200 334.000 C 301.640 334.000,302.000 333.820,302.000 333.600 C 302.000 333.380,302.320 333.200,302.712 333.200 C 303.103 333.200,303.683 332.840,304.000 332.400 C 304.317 331.960,304.897 331.600,305.288 331.600 C 305.680 331.600,306.000 331.420,306.000 331.200 C 306.000 330.980,306.320 330.800,306.712 330.800 C 307.103 330.800,307.683 330.440,308.000 330.000 C 308.317 329.560,308.897 329.200,309.288 329.200 C 309.680 329.200,310.000 329.020,310.000 328.800 C 310.000 328.580,310.360 328.400,310.800 328.400 C 311.240 328.400,311.600 328.220,311.600 328.000 C 311.600 327.780,311.920 327.600,312.312 327.600 C 312.703 327.600,313.283 327.240,313.600 326.800 C 313.917 326.360,314.497 326.000,314.888 326.000 C 315.280 326.000,315.600 325.820,315.600 325.600 C 315.600 325.380,315.960 325.200,316.400 325.200 C 316.840 325.200,317.200 325.020,317.200 324.800 C 317.200 324.580,317.520 324.400,317.912 324.400 C 318.303 324.400,318.883 324.040,319.200 323.600 C 319.517 323.160,320.097 322.800,320.488 322.800 C 320.880 322.800,321.200 322.620,321.200 322.400 C 321.200 322.180,321.520 322.000,321.912 322.000 C 322.303 322.000,322.883 321.640,323.200 321.200 C 323.517 320.760,324.097 320.400,324.488 320.400 C 324.880 320.400,325.200 320.220,325.200 320.000 C 325.200 319.780,325.560 319.600,326.000 319.600 C 326.440 319.600,326.800 319.420,326.800 319.200 C 326.800 318.980,327.120 318.800,327.512 318.800 C 327.903 318.800,328.483 318.440,328.800 318.000 C 329.117 317.560,329.697 317.200,330.088 317.200 C 330.480 317.200,330.800 317.020,330.800 316.800 C 330.800 316.580,331.160 316.400,331.600 316.400 C 332.040 316.400,332.400 316.220,332.400 316.000 C 332.400 315.780,332.720 315.600,333.112 315.600 C 333.503 315.600,334.083 315.240,334.400 314.800 C 334.717 314.360,335.297 314.000,335.688 314.000 C 336.080 314.000,336.400 313.820,336.400 313.600 C 336.400 313.380,336.720 313.200,337.112 313.200 C 337.503 313.200,338.083 312.840,338.400 312.400 C 338.717 311.960,339.257 311.600,339.600 311.600 C 339.943 311.600,340.483 311.240,340.800 310.800 C 341.117 310.360,341.609 310.000,341.893 310.000 C 342.521 310.000,351.600 300.989,351.600 300.365 C 351.600 300.121,352.140 299.417,352.800 298.800 C 353.460 298.183,354.000 297.431,354.000 297.128 C 354.000 296.825,354.360 296.317,354.800 296.000 C 355.240 295.683,355.600 295.103,355.600 294.712 C 355.600 294.320,355.780 294.000,356.000 294.000 C 356.220 294.000,356.400 293.680,356.400 293.288 C 356.400 292.897,356.760 292.317,357.200 292.000 C 357.640 291.683,358.000 291.103,358.000 290.712 C 358.000 290.320,358.180 290.000,358.400 290.000 C 358.620 290.000,358.800 289.640,358.800 289.200 C 358.800 288.760,358.980 288.400,359.200 288.400 C 359.420 288.400,359.600 288.040,359.600 287.600 C 359.600 287.160,359.780 286.800,360.000 286.800 C 360.220 286.800,360.400 286.540,360.400 286.222 C 360.400 285.905,361.042 284.060,361.827 282.122 C 362.611 280.185,363.826 276.530,364.527 274.000 L 365.800 269.400 365.918 202.000 C 366.049 126.576,366.205 131.123,363.175 121.883 C 360.021 112.263,354.105 102.566,347.000 95.373 C 341.646 89.953,341.094 89.592,315.800 75.000 C 303.700 68.019,293.600 62.059,293.356 61.754 C 293.112 61.449,292.656 61.200,292.344 61.200 C 292.032 61.200,291.517 60.840,291.200 60.400 C 290.883 59.960,290.303 59.600,289.912 59.600 C 289.520 59.600,289.200 59.420,289.200 59.200 C 289.200 58.980,288.840 58.800,288.400 58.800 C 287.960 58.800,287.600 58.620,287.600 58.400 C 287.600 58.180,287.280 58.000,286.888 58.000 C 286.497 58.000,285.917 57.640,285.600 57.200 C 285.283 56.760,284.703 56.400,284.312 56.400 C 283.920 56.400,283.600 56.220,283.600 56.000 C 283.600 55.780,283.240 55.600,282.800 55.600 C 282.360 55.600,282.000 55.420,282.000 55.200 C 282.000 54.980,281.680 54.800,281.288 54.800 C 280.897 54.800,280.317 54.440,280.000 54.000 C 279.683 53.560,279.103 53.200,278.712 53.200 C 278.320 53.200,278.000 53.020,278.000 52.800 C 278.000 52.580,277.640 52.400,277.200 52.400 C 276.760 52.400,276.400 52.220,276.400 52.000 C 276.400 51.780,276.164 51.600,275.875 51.600 C 275.587 51.600,274.964 51.240,274.492 50.800 C 274.020 50.360,273.356 50.000,273.017 50.000 C 272.678 50.000,272.400 49.820,272.400 49.600 C 272.400 49.380,272.080 49.200,271.688 49.200 C 271.297 49.200,270.717 48.840,270.400 48.400 C 270.083 47.960,269.503 47.600,269.112 47.600 C 268.720 47.600,268.400 47.420,268.400 47.200 C 268.400 46.980,268.040 46.800,267.600 46.800 C 267.160 46.800,266.800 46.620,266.800 46.400 C 266.800 46.180,266.480 46.000,266.088 46.000 C 265.697 46.000,265.117 45.640,264.800 45.200 C 264.483 44.760,263.903 44.400,263.512 44.400 C 263.120 44.400,262.800 44.220,262.800 44.000 C 262.800 43.780,262.440 43.600,262.000 43.600 C 261.560 43.600,261.200 43.420,261.200 43.200 C 261.200 42.980,260.880 42.800,260.488 42.800 C 260.097 42.800,259.517 42.440,259.200 42.000 C 258.883 41.560,258.303 41.200,257.912 41.200 C 257.520 41.200,257.200 41.020,257.200 40.800 C 257.200 40.580,256.880 40.400,256.488 40.400 C 256.097 40.400,255.517 40.040,255.200 39.600 C 254.883 39.160,254.303 38.800,253.912 38.800 C 253.520 38.800,253.200 38.620,253.200 38.400 C 253.200 38.180,252.840 38.000,252.400 38.000 C 251.960 38.000,251.600 37.820,251.600 37.600 C 251.600 37.380,251.280 37.200,250.888 37.200 C 250.497 37.200,249.917 36.840,249.600 36.400 C 249.283 35.960,248.703 35.600,248.312 35.600 C 247.920 35.600,247.600 35.420,247.600 35.200 C 247.600 34.980,247.240 34.800,246.800 34.800 C 246.360 34.800,246.000 34.620,246.000 34.400 C 246.000 34.180,245.680 34.000,245.288 34.000 C 244.897 34.000,244.317 33.640,244.000 33.200 C 243.683 32.760,243.103 32.400,242.712 32.400 C 242.320 32.400,242.000 32.220,242.000 32.000 C 242.000 31.780,241.680 31.600,241.288 31.600 C 240.897 31.600,240.317 31.240,240.000 30.800 C 239.683 30.360,239.103 30.000,238.712 30.000 C 238.320 30.000,238.000 29.820,238.000 29.600 C 238.000 29.380,237.640 29.200,237.200 29.200 C 236.760 29.200,236.400 29.020,236.400 28.800 C 236.400 28.580,236.080 28.400,235.688 28.400 C 235.297 28.400,234.717 28.040,234.400 27.600 C 234.083 27.160,233.503 26.800,233.112 26.800 C 232.720 26.800,232.400 26.620,232.400 26.400 C 232.400 26.180,232.040 26.000,231.600 26.000 C 231.160 26.000,230.800 25.820,230.800 25.600 C 230.800 25.380,230.455 25.200,230.033 25.200 C 229.612 25.200,229.207 25.065,229.133 24.900 C 228.941 24.468,225.628 22.800,224.962 22.800 C 224.653 22.800,224.400 22.620,224.400 22.400 C 224.400 22.180,223.961 22.000,223.424 22.000 C 222.887 22.000,222.336 21.820,222.200 21.600 C 222.064 21.380,221.524 21.200,221.000 21.200 C 220.476 21.200,219.948 21.040,219.827 20.844 C 219.706 20.649,219.021 20.388,218.304 20.266 C 217.587 20.144,216.100 19.854,215.000 19.622 C 208.059 18.156,198.811 17.700,191.800 18.479 M136.027 130.240 C 152.800 135.180,192.381 173.738,197.196 189.829 C 198.046 192.668,197.569 201.374,196.431 203.800 C 194.667 207.559,190.902 212.946,183.850 221.800 C 180.323 226.227,164.257 242.492,160.800 245.134 C 159.590 246.059,156.300 248.581,153.489 250.739 C 139.845 261.210,132.362 263.807,123.846 261.028 C 113.583 257.677,108.322 250.921,108.074 240.773 C 107.829 230.702,110.316 226.775,121.869 218.993 C 132.558 211.792,147.200 198.227,147.200 195.525 C 147.200 193.274,131.130 178.915,120.970 172.088 C 109.619 164.460,105.364 154.986,108.802 144.995 C 112.554 134.089,125.421 127.116,136.027 130.240 M282.207 232.803 C 294.029 238.682,294.253 254.583,282.600 260.743 L 280.600 261.800 244.400 261.800 L 208.200 261.800 205.895 260.651 C 194.953 255.195,194.830 238.281,205.695 233.094 C 206.853 232.541,208.070 231.993,208.400 231.876 C 208.730 231.759,224.927 231.649,244.393 231.632 L 279.787 231.600 282.207 232.803 " stroke="none" fill="#2b2b2b" fill-rule="evenodd"></path></g></svg>